<svg xmlns="http://www.w3.org/2000/svg" viewBox="0 0 256 256" width="256" height="256">
  <defs>
    <linearGradient id="bg" x1="0%" y1="0%" x2="100%" y2="100%">
      <stop offset="0%" style="stop-color:#667eea"/>
      <stop offset="100%" style="stop-color:#764ba2"/>
    </linearGradient>
    <linearGradient id="accent" x1="0%" y1="0%" x2="100%" y2="100%">
      <stop offset="0%" style="stop-color:#f093fb"/>
      <stop offset="100%" style="stop-color:#f5576c"/>
    </linearGradient>
  </defs>
  <rect width="256" height="256" rx="56" fill="url(#bg)"/>
  <g transform="translate(40, 60)">
    <path d="M0 40 L30 0 L50 0 L25 45 L50 90 L30 90 L0 50 L0 40Z" fill="white" opacity="0.95"/>
    <path d="M60 20 L80 20 L80 70 L110 70 L110 90 L60 90 L60 20Z" fill="white" opacity="0.85"/>
    <path d="M120 55 L140 55 L140 90 L120 90 L120 55Z" fill="url(#accent)"/>
    <circle cx="130" cy="35" r="15" fill="url(#accent)"/>
  </g>
  <text x="128" y="220" font-family="Arial, sans-serif" font-size="28" font-weight="bold" fill="white" text-anchor="middle" opacity="0.9">VERSOT</text>
</svg>
